<svg width="504" height="162" viewBox="0 0 504 162" fill="none" xmlns="http://www.w3.org/2000/svg">
<path fill-rule="evenodd" clip-rule="evenodd" d="M115.96 90.74V119.11H96.76V81.12C96.76 76.21 97.1 71.23 94.81 66.68C88.8 54.76 69.8 58.89 67.75 72.36C67.86 74.58 67.89 76.68 67.89 78.25V119.11H48.7V82.86C48.7 77.99 49.11 72.49 47.28 67.88C41.99 54.54 21.44 59.36 19.2 73.25V119.11H0V46.07H19.2V65.62C21.5 54.06 27.82 47.04 38.4 44.82C50.99 42.52 62.77 49.5 66.45 61.39C66.78 62.48 67.05 64 67.25 65.72C69.54 54.1 75.86 47.04 86.46 44.82C99.48 42.44 111.64 49.99 114.86 62.62C116.3 68.27 115.96 85.72 115.96 90.74ZM156.23 119.42L147.18 152.97H167.62L196.33 46.06H175.42L158.29 118.33L141.41 46.06H120.97L140.17 119.41H156.24L156.23 119.42Z" fill="url(#paint0_linear_20782_3505)"/>
<path d="M417.58 6.48999H398.38V119.11H417.58V6.48999Z" fill="url(#paint1_linear_20782_3505)"/>
<path fill-rule="evenodd" clip-rule="evenodd" d="M282.05 19.19C293.23 28.47 296.34 39.42 297.64 49.95C291.1 49.95 285.47 50.1199 278.92 50.1199C277.84 43.5799 275.4 37.97 271.62 33.97C266.19 28.22 257.83 25.82 249.7 26.57C234.91 27.94 227.19 37.52 223.98 51.39C222.87 56.19 222.39 61.48 222.61 67.08C223.43 93.38 234.34 105.16 252.26 104.11C270.61 104.08 277.44 91.3399 279.13 75.7099H250.45V61.86H298.62V119.01H279.96V82.1199C278.75 94.2999 275.36 104.66 267.76 111.53C259.08 119.39 244.77 121.87 233.55 119.39C224.53 117.4 217.19 112.21 211.97 104.68C204.16 93.4199 202.22 75.77 202.37 62.48C202.46 54.69 203.61 46.83 206.17 39.64C217.24 8.59997 257.98 0.429949 282.05 19.1799V19.19Z" fill="url(#paint2_linear_20782_3505)"/>
<path fill-rule="evenodd" clip-rule="evenodd" d="M482.5 6.48999V63.89C480.55 56.75 475.98 50.16 469.62 46.81C458.8 41.12 444.63 43.33 436.63 52.87C434.18 55.79 432.1 59.34 430.55 63.3C425.97 74.98 426.12 93.33 431.77 104.57C436.25 113.51 444.22 119.93 455.43 120.45C470.58 120.39 478.45 113.5 482.5 100.77V119.11H501.7V6.48999H482.5ZM446.51 81.74C445.91 61.41 470.52 48.15 482.5 71.67V93.88C469.51 115.85 445.23 103.13 446.51 81.74Z" fill="url(#paint3_linear_20782_3505)"/>
<path fill-rule="evenodd" clip-rule="evenodd" d="M349.16 47.33C370.95 47.73 384.83 59.62 386.37 82.13C388.25 109.59 371.81 124.56 344.56 123.31C316.75 122.03 306.79 97.35 310.94 76.68C314.88 57.07 329.46 46.97 349.17 47.33H349.16ZM329.33 85.37C329.13 97.64 335.48 109.03 349.16 108.7C362.03 108.39 367.93 98.7 368.1 87.1C368.28 74.39 362.95 62.72 349.39 62.8C335.27 62.89 329.53 72.94 329.33 85.37Z" fill="url(#paint4_linear_20782_3505)"/>
<path fill-rule="evenodd" clip-rule="evenodd" d="M225.78 136.36L224.44 141.56C223.51 140.98 222.51 140.55 221.44 140.26C220.37 139.97 219.25 139.83 218.08 139.83C215.35 139.83 213.09 140.59 211.29 142.1C209.49 143.61 208.4 145.68 208.02 148.29C207.65 150.81 208.06 152.81 209.25 154.3C210.44 155.79 212.22 156.53 214.61 156.53C215.11 156.53 215.58 156.51 216.01 156.46C216.44 156.41 216.85 156.35 217.23 156.25L217.99 151.02H214.14L214.83 146.3H224.87L222.84 160.23C221.47 160.6 220.07 160.88 218.62 161.07C217.18 161.26 215.71 161.35 214.22 161.35C209.35 161.35 205.82 160.25 203.61 158.06C201.4 155.87 200.61 152.67 201.22 148.47C201.83 144.26 203.59 140.99 206.49 138.65C209.39 136.32 213.15 135.15 217.78 135.15C219.17 135.15 220.53 135.25 221.86 135.46C223.19 135.67 224.5 135.97 225.78 136.37V136.36ZM239.13 146.2C240.35 146.2 241.26 146.68 241.85 147.64C242.44 148.6 242.62 149.88 242.39 151.49C242.16 153.09 241.61 154.36 240.73 155.31C239.85 156.26 238.8 156.74 237.59 156.74C236.38 156.74 235.49 156.25 234.89 155.29C234.29 154.32 234.1 153.06 234.33 151.49C234.56 149.89 235.12 148.62 236.01 147.65C236.9 146.68 237.94 146.2 239.14 146.2H239.13ZM231.59 144.35C229.46 146.07 228.18 148.46 227.73 151.52C227.29 154.56 227.88 156.93 229.5 158.65C231.12 160.37 233.6 161.24 236.93 161.24C240.26 161.24 243.01 160.38 245.14 158.65C247.27 156.93 248.56 154.55 249 151.52C249.45 148.46 248.85 146.07 247.23 144.35C245.6 142.63 243.11 141.76 239.77 141.76C236.43 141.76 233.71 142.62 231.59 144.35ZM251.48 160.78H257.82L261.76 133.78H255.42L251.48 160.78ZM274.17 146.41C275.41 146.41 276.34 146.86 276.94 147.75C277.54 148.65 277.73 149.85 277.51 151.36C277.28 152.92 276.76 154.14 275.93 155.02C275.1 155.9 274.08 156.34 272.86 156.34C271.64 156.34 270.82 155.9 270.24 155.02C269.67 154.14 269.5 152.95 269.72 151.45C269.94 149.96 270.46 148.75 271.3 147.81C272.14 146.87 273.1 146.41 274.18 146.41H274.17ZM278.5 144.83C277.92 143.81 277.16 143.04 276.21 142.53C275.26 142.02 274.13 141.77 272.83 141.77C270.35 141.77 268.24 142.63 266.51 144.34C264.78 146.06 263.7 148.37 263.27 151.26C262.84 154.21 263.25 156.57 264.51 158.36C265.77 160.15 267.63 161.05 270.09 161.05C271.54 161.05 272.89 160.71 274.14 160.03C275.39 159.35 276.47 158.36 277.37 157.05L276.83 160.76H282.52L286.46 133.76H280.12L278.51 144.81L278.5 144.83ZM303.77 137.99L303.15 142.27H299.23L298.56 146.84H302.12L301.16 153.39C300.75 156.17 301.02 158.18 301.96 159.42C302.9 160.66 304.62 161.27 307.14 161.27C307.75 161.27 308.38 161.23 309.03 161.15C309.68 161.07 310.36 160.95 311.06 160.8L311.56 156.67C311.11 156.78 310.77 156.85 310.53 156.89C310.29 156.93 310.1 156.95 309.95 156.95C308.87 156.95 308.15 156.67 307.78 156.11C307.42 155.55 307.34 154.58 307.54 153.21L308.47 146.83H313.01L313.68 142.26H309.14L310.06 135.96L303.78 137.98L303.77 137.99ZM314.45 160.78H320.79L322.09 151.88C322.31 150.38 322.81 149.18 323.61 148.29C324.4 147.4 325.35 146.95 326.45 146.95C327.55 146.95 328.24 147.3 328.65 148.01C329.06 148.72 329.16 149.8 328.95 151.26L327.56 160.78H333.86L335.44 149.94C335.83 147.27 335.53 145.24 334.55 143.85C333.57 142.46 331.94 141.77 329.68 141.77C328.34 141.77 327.12 142.03 325.99 142.55C324.86 143.07 323.91 143.83 323.11 144.83L324.72 133.78H318.38L314.44 160.78H314.45ZM349.82 152.35H350.89L350.81 152.88C350.63 154.12 350.12 155.13 349.27 155.9C348.42 156.67 347.43 157.06 346.27 157.06C345.54 157.06 344.98 156.86 344.61 156.46C344.23 156.06 344.08 155.54 344.18 154.89C344.31 154 344.81 153.35 345.69 152.95C346.57 152.55 347.94 152.34 349.81 152.34L349.82 152.35ZM355.97 143.99C354.77 142.48 352.67 141.73 349.64 141.73C348.2 141.73 346.86 141.84 345.63 142.05C344.4 142.26 343.24 142.58 342.14 143.02L341.64 147.21C342.78 146.72 343.83 146.34 344.79 146.08C345.76 145.82 346.6 145.7 347.33 145.7C348.81 145.7 349.89 145.97 350.59 146.51C351.28 147.05 351.56 147.82 351.41 148.84L351.37 149.09H348.89C345.53 149.09 342.96 149.58 341.2 150.57C339.44 151.56 338.4 153.08 338.1 155.14C337.84 156.92 338.19 158.34 339.15 159.41C340.1 160.48 341.52 161.01 343.4 161.01C344.9 161.01 346.22 160.76 347.36 160.26C348.49 159.76 349.51 158.98 350.42 157.91L350.14 160.79H355.64L357.05 151.11C357.52 147.88 357.16 145.52 355.97 144.01V143.99ZM365.54 137.99L364.92 142.27H361L360.33 146.84H363.89L362.93 153.39C362.52 156.17 362.79 158.18 363.73 159.42C364.67 160.66 366.39 161.27 368.91 161.27C369.52 161.27 370.15 161.23 370.8 161.15C371.45 161.07 372.13 160.95 372.83 160.8L373.33 156.67C372.88 156.78 372.54 156.85 372.3 156.89C372.06 156.93 371.87 156.95 371.72 156.95C370.64 156.95 369.92 156.67 369.55 156.11C369.19 155.55 369.11 154.58 369.31 153.21L370.24 146.83H374.78L375.45 142.26H370.91L371.83 135.96L365.55 137.98L365.54 137.99ZM409.03 135.45C407.7 135.25 406.34 135.14 404.95 135.14C400.32 135.14 396.56 136.31 393.66 138.64C390.76 140.98 389 144.25 388.39 148.46C387.78 152.67 388.57 155.86 390.78 158.05C392.99 160.24 396.52 161.34 401.39 161.34C402.88 161.34 404.34 161.24 405.79 161.06C407.24 160.87 408.64 160.59 410.01 160.22L412.04 146.29H402L401.31 151.01H405.16L404.4 156.24C404.01 156.34 403.6 156.4 403.18 156.45C402.75 156.5 402.28 156.52 401.78 156.52C399.4 156.52 397.62 155.78 396.42 154.29C395.23 152.8 394.82 150.8 395.19 148.28C395.57 145.66 396.66 143.6 398.46 142.09C400.25 140.58 402.52 139.82 405.25 139.82C406.42 139.82 407.54 139.96 408.61 140.25C409.68 140.54 410.68 140.97 411.61 141.55L412.95 136.35C411.67 135.95 410.36 135.65 409.03 135.44V135.45ZM430.47 141.97C429.63 141.84 429.03 141.77 428.71 141.77C427.44 141.77 426.3 142.1 425.28 142.75C424.25 143.41 423.32 144.42 422.48 145.8L422.99 142.27H417.34L414.64 160.78H420.98L422.13 152.88C422.4 151 423 149.56 423.91 148.59C424.82 147.62 426.03 147.13 427.54 147.13C427.96 147.13 428.33 147.15 428.64 147.21C428.94 147.26 429.22 147.34 429.46 147.45L430.59 141.98L430.47 141.96V141.97ZM442 146.2C443.22 146.2 444.13 146.68 444.72 147.64C445.31 148.6 445.49 149.88 445.26 151.49C445.03 153.09 444.48 154.36 443.6 155.31C442.72 156.26 441.67 156.74 440.46 156.74C439.25 156.74 438.36 156.25 437.76 155.29C437.16 154.32 436.97 153.06 437.2 151.49C437.43 149.89 437.99 148.62 438.88 147.65C439.77 146.68 440.81 146.2 442.01 146.2H442ZM434.47 144.35C432.34 146.07 431.06 148.46 430.61 151.52C430.17 154.56 430.76 156.93 432.38 158.65C434 160.37 436.48 161.24 439.81 161.24C443.14 161.24 445.89 160.38 448.02 158.65C450.15 156.93 451.44 154.55 451.88 151.52C452.33 148.46 451.73 146.07 450.11 144.35C448.48 142.63 445.99 141.76 442.65 141.76C439.31 141.76 436.59 142.62 434.47 144.35ZM458.09 160.78H465.4L470.36 148.48C470.42 148.34 470.5 148.07 470.61 147.66C470.72 147.25 470.87 146.71 471.05 146.03C470.98 146.57 470.94 147.04 470.92 147.43C470.9 147.83 470.91 148.17 470.94 148.47L472.17 160.77H479.41L487.76 142.26H481.6L477.19 154.19C477.15 154.29 477.09 154.5 477.01 154.81C476.93 155.12 476.8 155.69 476.61 156.5C476.64 156.1 476.66 155.7 476.65 155.31C476.65 154.91 476.63 154.52 476.6 154.13L475.56 142.25H468L463.42 153.88C463.33 154.13 463.21 154.47 463.07 154.94C462.94 155.4 462.79 155.92 462.63 156.5C462.67 155.98 462.69 155.52 462.7 155.08C462.7 154.65 462.69 154.25 462.66 153.88L461.81 142.25H455.11L458.09 160.76V160.78ZM501.04 142.01C500.12 141.85 499.2 141.76 498.3 141.76C495.53 141.76 493.31 142.29 491.63 143.37C489.95 144.44 488.97 145.94 488.69 147.88C488.51 149.15 488.74 150.17 489.39 150.95C490.04 151.73 491.28 152.44 493.13 153.07C493.39 153.15 493.74 153.27 494.19 153.41C496 153.97 496.86 154.63 496.75 155.38C496.68 155.88 496.39 156.26 495.88 156.51C495.38 156.76 494.65 156.89 493.73 156.89C492.75 156.89 491.79 156.77 490.87 156.53C489.94 156.29 489.07 155.94 488.24 155.49L487.14 160.23C488.16 160.58 489.2 160.85 490.28 161.02C491.36 161.19 492.47 161.28 493.61 161.28C496.28 161.28 498.46 160.72 500.14 159.59C501.83 158.46 502.81 156.93 503.1 154.97C503.31 153.51 503.1 152.35 502.44 151.51C501.79 150.66 500.52 149.95 498.64 149.36C498.34 149.27 497.93 149.14 497.41 148.99C495.76 148.52 494.98 147.96 495.08 147.3C495.15 146.8 495.42 146.41 495.88 146.13C496.35 145.85 496.96 145.72 497.73 145.72C498.5 145.72 499.31 145.85 500.14 146.1C500.96 146.35 501.76 146.72 502.53 147.2L503.8 142.73C502.89 142.42 501.96 142.17 501.04 142.01Z" fill="url(#paint5_linear_20782_3505)"/>
<path fill-rule="evenodd" clip-rule="evenodd" d="M338.62 0L308.37 30.12L319.46 41.08L347.19 13.23L375.17 41.08L386.89 29.87L356.26 0H347.2H338.62Z" fill="url(#paint6_linear_20782_3505)"/>
<defs>
<linearGradient id="paint0_linear_20782_3505" x1="127.19" y1="166.9" x2="76.52" y2="19.73" gradientUnits="userSpaceOnUse">
<stop stop-color="#9F9F9F"/>
<stop offset="1" stop-color="#F1F1F1"/>
</linearGradient>
<linearGradient id="paint1_linear_20782_3505" x1="426.33" y1="116.1" x2="389.63" y2="9.50998" gradientUnits="userSpaceOnUse">
<stop stop-color="#957342"/>
<stop offset="1" stop-color="#FECF8D"/>
</linearGradient>
<linearGradient id="paint2_linear_20782_3505" x1="272.27" y1="128.07" x2="232.58" y2="12.81" gradientUnits="userSpaceOnUse">
<stop stop-color="#957342"/>
<stop offset="1" stop-color="#FECF8D"/>
</linearGradient>
<linearGradient id="paint3_linear_20782_3505" x1="489.88" y1="123.18" x2="453.17" y2="16.59" gradientUnits="userSpaceOnUse">
<stop stop-color="#957342"/>
<stop offset="1" stop-color="#FECF8D"/>
</linearGradient>
<linearGradient id="paint4_linear_20782_3505" x1="360.91" y1="121.95" x2="335.74" y2="48.84" gradientUnits="userSpaceOnUse">
<stop stop-color="#9F9F9F"/>
<stop offset="1" stop-color="#F1F1F1"/>
</linearGradient>
<linearGradient id="paint5_linear_20782_3505" x1="352.41" y1="163.55" x2="352.41" y2="129.32" gradientUnits="userSpaceOnUse">
<stop stop-color="#957342"/>
<stop offset="0.65" stop-color="#FACC8A"/>
<stop offset="1" stop-color="#FECF8D"/>
</linearGradient>
<linearGradient id="paint6_linear_20782_3505" x1="353.96" y1="48.38" x2="337.44" y2="0.400008" gradientUnits="userSpaceOnUse">
<stop stop-color="#957342"/>
<stop offset="1" stop-color="#FECF8D"/>
</linearGradient>
</defs>
</svg>
