<svg id="Layer_1" data-name="Layer 1" xmlns="http://www.w3.org/2000/svg" width="189.506" height="63.95" viewBox="0 0 189.506 63.95">
  <g id="Group_8" data-name="Group 8" transform="translate(0 0)">
    <g id="Group_1" data-name="Group 1" transform="translate(0 57.38)">
      <path id="Path_1" data-name="Path 1" d="M0,78.668V72.4H2.288v6.268Z" transform="translate(0 -72.265)" fill="#a04a96"/>
      <path id="Path_2" data-name="Path 2" d="M5.52,78.668V72.4H7.728l1.946,3.281c-.024-.127-.04-.207-.04-.23-.008-.087-.016-.175-.016-.254v-.373c0-.111,0-.214-.008-.318V72.4H11.78v6.268H9.556L7.633,75.411c.016.111.032.2.04.27a1.709,1.709,0,0,1,.016.183l.016.54V78.66H5.528Z" transform="translate(-1.135 -72.265)" fill="#a04a96"/>
      <path id="Path_3" data-name="Path 3" d="M16.645,78.668V74.45H15.39V72.4h4.758v2.05H18.893v4.218Z" transform="translate(-3.164 -72.265)" fill="#a04a96"/>
      <path id="Path_4" data-name="Path 4" d="M23.4,78.668V72.4h4.194v1.7H25.608v.6h1.8v1.6h-1.8v.659h2.034v1.7Z" transform="translate(-4.811 -72.265)" fill="#a04a96"/>
      <path id="Path_5" data-name="Path 5" d="M30.99,78.668V72.4h2.256v4.234h2.193v2.034H30.99Z" transform="translate(-6.371 -72.265)" fill="#a04a96"/>
      <path id="Path_6" data-name="Path 6" d="M38.56,78.668V72.4h2.256v4.234h2.193v2.034Z" transform="translate(-7.928 -72.265)" fill="#a04a96"/>
      <path id="Path_7" data-name="Path 7" d="M46.19,78.668V72.4h2.288v6.268Z" transform="translate(-9.496 -72.265)" fill="#a04a96"/>
      <path id="Path_8" data-name="Path 8" d="M55.64,76.393h-.977v-1.47h3.464l.016.286v.167a4.765,4.765,0,0,1-.1.985,2.5,2.5,0,0,1-.3.786,3.328,3.328,0,0,1-1.231,1.231,3.443,3.443,0,0,1-1.724.421,3.643,3.643,0,0,1-1.327-.238,3.166,3.166,0,0,1-1.787-1.756,3.375,3.375,0,0,1-.183-.612,3.676,3.676,0,0,1-.064-.675,3.457,3.457,0,0,1,.238-1.3,3.113,3.113,0,0,1,.7-1.049,3.288,3.288,0,0,1,1.08-.7,3.674,3.674,0,0,1,1.327-.238,3.466,3.466,0,0,1,1.708.421,3.293,3.293,0,0,1,1.231,1.239l-2.01.747a1.1,1.1,0,0,0-.373-.389,1,1,0,0,0-.516-.127.969.969,0,0,0-.8.381,1.925,1.925,0,0,0,.008,2.058,1.03,1.03,0,0,0,.85.365,1,1,0,0,0,.532-.135.535.535,0,0,0,.238-.381Z" transform="translate(-10.574 -72.23)" fill="#a04a96"/>
      <path id="Path_9" data-name="Path 9" d="M62.01,78.668V72.4H66.2v1.7H64.218v.6h1.8v1.6h-1.8v.659h2.034v1.7Z" transform="translate(-12.749 -72.265)" fill="#a04a96"/>
      <path id="Path_10" data-name="Path 10" d="M69.61,78.668V72.4h2.208l1.946,3.281c-.024-.127-.04-.207-.04-.23-.008-.087-.016-.175-.016-.254v-.373c0-.111,0-.214-.008-.318V72.4H75.87v6.268H73.646l-1.93-3.257c.016.111.032.2.04.27a1.709,1.709,0,0,1,.016.183l.016.54V78.66H69.61Z" transform="translate(-14.311 -72.265)" fill="#a04a96"/>
      <path id="Path_11" data-name="Path 11" d="M80.735,78.668V74.45H79.48V72.4h4.758v2.05H82.983v4.218H80.727Z" transform="translate(-16.341 -72.265)" fill="#a04a96"/>
    </g>
    <g id="Group_2" data-name="Group 2" transform="translate(82.261 57.197)">
      <path id="Path_12" data-name="Path 12" d="M103.55,78.458V72.19h2.288v6.268Z" transform="translate(-103.55 -72.039)" fill="#a04a96"/>
      <path id="Path_13" data-name="Path 13" d="M114.656,78.456l-.27-2.479-.048-.572-.04-.572c-.032.2-.064.4-.111.6s-.1.405-.175.62l-.723,2.407h-1.343l-.723-2.407q-.048-.143-.1-.334c-.016-.056-.04-.159-.079-.31l-.1-.572v.175c0,.048-.016.183-.04.4v.175c0,.048-.016.183-.04.4l-.278,2.479H108.38l1.072-6.268h2.328l.445,1.549.064.214a9.865,9.865,0,0,1,.35,1.613h.04a7.849,7.849,0,0,1,.159-.85c.071-.3.159-.636.27-1.009l.469-1.525h2.32l.993,6.268H114.68Z" transform="translate(-104.543 -72.037)" fill="#a04a96"/>
      <path id="Path_14" data-name="Path 14" d="M120.94,78.458V72.19h2.693a3.245,3.245,0,0,1,2.081.548,2.145,2.145,0,0,1,.659,1.74,2.043,2.043,0,0,1-.588,1.613,2.8,2.8,0,0,1-1.867.516h-.707v1.851h-2.264Zm2.264-4.52v1.041h.35a.791.791,0,0,0,.493-.135.512.512,0,0,0,0-.771.748.748,0,0,0-.485-.135h-.35Z" transform="translate(-107.125 -72.039)" fill="#a04a96"/>
      <path id="Path_15" data-name="Path 15" d="M128.81,78.458l2.232-6.268h2.51l2.193,6.268h-2.423l-.2-.786h-1.7l-.191.786h-2.415Zm2.995-2.272h.937l-.191-.707q-.143-.548-.191-.834a2.76,2.76,0,0,1-.04-.286,1.771,1.771,0,0,1-.024-.262h-.04a.976.976,0,0,1-.016.222c-.008.064-.024.183-.056.35s-.087.437-.191.81l-.191.707Z" transform="translate(-108.743 -72.039)" fill="#a04a96"/>
      <path id="Path_16" data-name="Path 16" d="M143.638,74.637A2.277,2.277,0,0,0,143,74.2a1.672,1.672,0,0,0-.675-.151,1.185,1.185,0,0,0-.89.342,1.236,1.236,0,0,0-.334.906,1.2,1.2,0,0,0,.318.882,1.137,1.137,0,0,0,.858.334,1.462,1.462,0,0,0,.326-.032,2.249,2.249,0,0,0,.334-.1,3.435,3.435,0,0,0,.739-.445l-.072,2.351a3.882,3.882,0,0,1-.731.222,4.034,4.034,0,0,1-.739.079,3.62,3.62,0,0,1-.882-.1,3.169,3.169,0,0,1-.771-.294,3.342,3.342,0,0,1-1.255-1.207A3.258,3.258,0,0,1,138.8,75.3a3.631,3.631,0,0,1,.056-.675,3.277,3.277,0,0,1,.183-.628,3.128,3.128,0,0,1,.707-1.057,3.054,3.054,0,0,1,1.08-.7A3.686,3.686,0,0,1,142.16,72a3.43,3.43,0,0,1,.755.079,3.287,3.287,0,0,1,.715.238v2.32Z" transform="translate(-110.797 -72)" fill="#a04a96"/>
      <path id="Path_17" data-name="Path 17" d="M147.935,78.458V74.24H146.68V72.19h4.758v2.05h-1.255v4.218Z" transform="translate(-112.417 -72.039)" fill="#a04a96"/>
    </g>
    <g id="Group_3" data-name="Group 3" transform="translate(136.082 57.491)">
      <path id="Path_18" data-name="Path 18" d="M171.3,78.638V72.37h4.194v1.7h-1.986v.6h1.8v1.6h-1.8v.659h2.034v1.7Z" transform="translate(-171.3 -72.37)" fill="#a04a96"/>
      <path id="Path_19" data-name="Path 19" d="M180.161,78.638,177.77,72.37h2.439l.667,2.272c.048.183.1.334.127.453.024.087.056.222.1.413a4.716,4.716,0,0,1,.087.612h.04c.016-.111.032-.214.048-.318s.04-.214.071-.35c.048-.222.119-.477.207-.763l.7-2.32h2.391l-2.383,6.268h-2.1Z" transform="translate(-172.63 -72.37)" fill="#a04a96"/>
      <path id="Path_20" data-name="Path 20" d="M187.87,78.638V72.37h4.194v1.7h-1.986v.6h1.8v1.6h-1.8v.659h2.034v1.7Z" transform="translate(-174.707 -72.37)" fill="#a04a96"/>
      <path id="Path_21" data-name="Path 21" d="M195.47,78.638V72.37h2.836a2.905,2.905,0,0,1,1.883.54,1.906,1.906,0,0,1,.651,1.565,1.779,1.779,0,0,1-.326,1.1,1.307,1.307,0,0,1-.89.508l1.676,2.55h-2.526l-1.1-2.065V78.63H195.47Zm2.208-4.655v1.223h.35a.717.717,0,0,0,.493-.151.565.565,0,0,0,.175-.453.593.593,0,0,0-.175-.461.682.682,0,0,0-.493-.159Z" transform="translate(-176.269 -72.37)" fill="#a04a96"/>
      <path id="Path_22" data-name="Path 22" d="M205.207,78.638V75.865l-2.1-3.5h2.566l.524,1.215a4.913,4.913,0,0,1,.175.469l.016.048a1.66,1.66,0,0,1,.064-.183c.024-.064.056-.151.1-.254l.032-.071.516-1.223h2.55l-2.177,3.5v2.772h-2.272Z" transform="translate(-177.84 -72.37)" fill="#a04a96"/>
      <path id="Path_23" data-name="Path 23" d="M212.61,78.638V72.37h1.827a9.807,9.807,0,0,1,1.493.1,3.055,3.055,0,0,1,.993.3,3.189,3.189,0,0,1,1.247,1.128,3.205,3.205,0,0,1,.008,3.217,3.181,3.181,0,0,1-1.255,1.136,3.345,3.345,0,0,1-1.025.3,11.271,11.271,0,0,1-1.629.1h-1.66Zm2.232-1.915a1.722,1.722,0,0,0,1.112-.3,1.379,1.379,0,0,0,.016-1.835,1.5,1.5,0,0,0-1.025-.3h-.1v2.431Z" transform="translate(-179.793 -72.37)" fill="#a04a96"/>
      <path id="Path_24" data-name="Path 24" d="M221.39,78.638l2.232-6.268h2.51l2.193,6.268H225.9l-.2-.786H224l-.191.786Zm2.995-2.28h.937l-.191-.715c-.1-.365-.159-.643-.191-.826a2.764,2.764,0,0,1-.04-.286,1.773,1.773,0,0,1-.024-.262h-.04a.976.976,0,0,1-.016.222c-.008.064-.024.183-.056.35s-.087.437-.191.81l-.191.715Z" transform="translate(-181.598 -72.37)" fill="#a04a96"/>
      <path id="Path_25" data-name="Path 25" d="M232.407,78.638V75.865l-2.1-3.5h2.566l.524,1.215a4.908,4.908,0,0,1,.175.469l.016.048a1.66,1.66,0,0,1,.064-.183c.024-.064.056-.151.1-.254l.032-.071.516-1.223h2.55l-2.177,3.5v2.772h-2.272Z" transform="translate(-183.432 -72.37)" fill="#a04a96"/>
    </g>
    <g id="Group_4" data-name="Group 4" transform="translate(72.132 58.405)">
      <circle id="Ellipse_1" data-name="Ellipse 1" cx="0.834" cy="0.834" r="0.834" transform="translate(1.144 1.144)" fill="#020202"/>
      <path id="Path_26" data-name="Path 26" d="M92.778,77.476A1.978,1.978,0,1,1,94.756,75.5,1.983,1.983,0,0,1,92.778,77.476Zm0-2.288a.318.318,0,1,0,.318.318A.319.319,0,0,0,92.778,75.188Z" transform="translate(-90.8 -73.52)" fill="#020202"/>
    </g>
    <g id="Group_5" data-name="Group 5" transform="translate(125.937 58.619)">
      <circle id="Ellipse_2" data-name="Ellipse 2" cx="0.834" cy="0.834" r="0.834" transform="translate(1.144 1.144)" fill="#020202"/>
      <path id="Path_27" data-name="Path 27" d="M160.508,77.746a1.978,1.978,0,1,1,1.978-1.978A1.983,1.983,0,0,1,160.508,77.746Zm0-2.3a.318.318,0,1,0,.318.318A.319.319,0,0,0,160.508,75.45Z" transform="translate(-158.53 -73.79)" fill="#020202"/>
    </g>
    <g id="Group_6" data-name="Group 6" transform="translate(5.307 6.649)">
      <path id="Path_28" data-name="Path 28" d="M23.434,25.683a14.445,14.445,0,0,0-8.611.548A12.777,12.777,0,0,0,10.541,29,12.976,12.976,0,0,0,7.7,33.2,13.254,13.254,0,0,0,6.68,38.409,12.41,12.41,0,0,0,7.7,43.47a12.682,12.682,0,0,0,2.82,4.1,12.893,12.893,0,0,0,4.2,2.717,13.387,13.387,0,0,0,5.052.961,14.064,14.064,0,0,0,6.713-1.613l.151-.079V42.763l-.5.564a8.268,8.268,0,0,1-6.316,3.066,7.575,7.575,0,0,1-5.736-2.312,8.132,8.132,0,0,1-2.24-5.871,8.021,8.021,0,0,1,.588-3.027,8.424,8.424,0,0,1,1.652-2.59,7.962,7.962,0,0,1,2.463-1.8,6.875,6.875,0,0,1,2.963-.659,8.5,8.5,0,0,1,6.617,3.114l.5.572V26.978l-.143-.079a11.37,11.37,0,0,0-3.058-1.2Z" transform="translate(-6.68 -11.845)" fill="#020202"/>
      <rect id="Rectangle_2" data-name="Rectangle 2" width="5.164" height="24.452" transform="translate(26.12 14.132)" fill="#020202"/>
      <path id="Path_29" data-name="Path 29" d="M41.918,8.37A3.288,3.288,0,0,0,39.471,9.4a3.458,3.458,0,0,0-1,2.471,3.239,3.239,0,0,0,1,2.4,3.491,3.491,0,0,0,4.894,0,3.277,3.277,0,0,0,1-2.4,3.465,3.465,0,0,0-1-2.471A3.313,3.313,0,0,0,41.918,8.37Z" transform="translate(-13.216 -8.37)" fill="#020202"/>
      <path id="Path_30" data-name="Path 30" d="M67.5,25.26a6.922,6.922,0,0,0-4.123,1.279A7.562,7.562,0,0,0,61.1,29.176v-3.2H55.94V50.427H61.1V38.407a23.535,23.535,0,0,1,.2-3.1,8.981,8.981,0,0,1,.739-2.574,4.374,4.374,0,0,1,1.581-1.819,4.929,4.929,0,0,1,2.749-.691,3.889,3.889,0,0,1,2.622.9l.278.238,2.375-4.743-.214-.135A7.223,7.223,0,0,0,67.5,25.268Z" transform="translate(-16.808 -11.842)" fill="#020202"/>
      <path id="Path_31" data-name="Path 31" d="M84.152,32.589a7.961,7.961,0,0,1,2.463-1.8,6.875,6.875,0,0,1,2.963-.659A8.5,8.5,0,0,1,96.2,33.248l.5.572V26.972l-.143-.079a11.37,11.37,0,0,0-3.058-1.2,14.445,14.445,0,0,0-8.611.548A12.776,12.776,0,0,0,80.6,29.006a12.976,12.976,0,0,0-2.844,4.2,13.254,13.254,0,0,0-1.017,5.211,12.41,12.41,0,0,0,1.017,5.06,12.681,12.681,0,0,0,2.82,4.1,12.893,12.893,0,0,0,4.2,2.717,13.387,13.387,0,0,0,5.052.961,14.064,14.064,0,0,0,6.713-1.613l.151-.079V42.773l-.5.564A8.268,8.268,0,0,1,89.879,46.4a7.576,7.576,0,0,1-5.736-2.312,8.132,8.132,0,0,1-2.24-5.871,8.021,8.021,0,0,1,.588-3.027,8.425,8.425,0,0,1,1.652-2.59Z" transform="translate(-21.084 -11.847)" fill="#020202"/>
    </g>
    <g id="Group_7" data-name="Group 7" transform="translate(112.075)">
      <rect id="Rectangle_3" data-name="Rectangle 3" width="5.164" height="44.852" transform="translate(0 0.612)" fill="#020202"/>
      <path id="Path_32" data-name="Path 32" d="M159.688,8.67A3.288,3.288,0,0,0,157.241,9.7a3.425,3.425,0,0,0-1,2.471,3.239,3.239,0,0,0,1,2.4,3.491,3.491,0,0,0,4.894,0,3.277,3.277,0,0,0,1-2.4,3.465,3.465,0,0,0-1-2.471A3.313,3.313,0,0,0,159.688,8.67Z" transform="translate(-144.197 -1.782)" fill="#020202"/>
      <rect id="Rectangle_4" data-name="Rectangle 4" width="5.164" height="24.452" transform="translate(12.909 21.02)" fill="#020202"/>
      <path id="Path_33" data-name="Path 33" d="M181.921,0a8.807,8.807,0,0,0-3.773.739,6.341,6.341,0,0,0-2.51,2.081,8.653,8.653,0,0,0-1.319,3.058,16.988,16.988,0,0,0-.389,3.789V21.012H171.84v4.862h2.089v19.59h5.164V25.874h6.323V21.012h-6.323v-9.97c0-.834.024-1.6.079-2.248a8.551,8.551,0,0,1,.373-1.9,3.385,3.385,0,0,1,.914-1.486,2.244,2.244,0,0,1,1.613-.564,3.723,3.723,0,0,1,1.16.214c.429.143.977.357,1.573.62l.62.31V.707l-.183-.071A8.881,8.881,0,0,0,181.921,0Z" transform="translate(-147.404 0)" fill="#020202"/>
      <path id="Path_34" data-name="Path 34" d="M208.745,42.137l-.143.238a11.458,11.458,0,0,1-2.955,3.408,6.677,6.677,0,0,1-3.94,1.1,6.184,6.184,0,0,1-4.933-2.248,8.266,8.266,0,0,1-1.962-5.092h18.208v-1A14.475,14.475,0,0,0,210.1,29.2c-1.954-2.423-4.83-3.654-8.54-3.654a11.131,11.131,0,0,0-8.842,3.67,14.256,14.256,0,0,0-3.074,9.469,14.936,14.936,0,0,0,.834,5.044,12.282,12.282,0,0,0,2.407,4.1,10.823,10.823,0,0,0,3.8,2.725,12.42,12.42,0,0,0,4.989.969,12.826,12.826,0,0,0,6.6-1.772,12.67,12.67,0,0,0,4.719-4.9l.135-.246-4.369-2.471ZM195.105,35.5a6.779,6.779,0,0,1,2.121-3.789,6.268,6.268,0,0,1,4.322-1.613,6.077,6.077,0,0,1,4.242,1.533,6.813,6.813,0,0,1,2,3.861H195.105Z" transform="translate(-151.064 -5.253)" fill="#020202"/>
    </g>
    <path id="Path_35" data-name="Path 35" d="M131.436,38.434a14.3,14.3,0,0,1-.747,3.543,13.045,13.045,0,0,1-1.366,2.749,14.634,14.634,0,0,1-1.295,1.668,13.172,13.172,0,0,1-2.947,2.447,12.521,12.521,0,0,1-3.257,1.422,11.994,11.994,0,0,1-1.6.342,8.182,8.182,0,0,1-1.072.111c-.056.024-.119,0-.183.008h-.175a.424.424,0,0,0-.2.016h-.707c-.064-.024-.135,0-.2-.016h-.175a.706.706,0,0,1-.183-.008,12.575,12.575,0,0,1-4.361-1.049,12.781,12.781,0,0,1-2.669-1.549c-.373-.278-.723-.588-1.072-.906a12.6,12.6,0,0,1-1.97-2.288,13.172,13.172,0,0,1-1.954-4.5,10.212,10.212,0,0,1-.27-1.843c0-.1-.056-.2-.032-.31a1.952,1.952,0,0,0,.016-.222.391.391,0,0,0-.016-.191v-.707c.024-.064,0-.127.016-.191a.529.529,0,0,0-.016-.222c.024-.294.032-.588.072-.874a16.876,16.876,0,0,1,.326-1.676,13.435,13.435,0,0,1,1.374-3.337,12.45,12.45,0,0,1,1.271-1.819,13.649,13.649,0,0,1,1.541-1.565,12.892,12.892,0,0,1,3-1.946,12.534,12.534,0,0,1,3.3-1.033,11.072,11.072,0,0,1,1.772-.183c.071-.04.151,0,.23-.032h.707c.064.032.127,0,.191.032A13.026,13.026,0,0,1,126.3,27a11.7,11.7,0,0,1,1.613,1.462,13.431,13.431,0,0,1,2.312,3.432,12.7,12.7,0,0,1,.993,3.082,8.918,8.918,0,0,1,.183,1.374,1.073,1.073,0,0,0,.04.23c.024.056,0,.119.008.183v.175a.423.423,0,0,0,.016.2v.707c-.024.064,0,.135-.016.2v.175a.706.706,0,0,1-.008.183Z" transform="translate(-21.586 -4.99)" fill="#a04a96"/>
    <path id="Path_36" data-name="Path 36" d="M107.771,41.626a5.7,5.7,0,0,0,1.184,1.907,5.279,5.279,0,0,0,1.787,1.263,5.084,5.084,0,0,0,4.051,0,5.473,5.473,0,0,0,1.787-1.263h0c.286-.262.413-.453.628-.675l.127-.135,2.343-2.5,2.836-3.035h0a3.036,3.036,0,0,1,1.319-.834,2.868,2.868,0,0,1,2.3.286,3.275,3.275,0,0,1,1.47,2.1,2.765,2.765,0,0,1,.072.628h0v.079h0v.079h0a3.4,3.4,0,0,1-.532,1.764,3.547,3.547,0,0,1-.6.691,2.875,2.875,0,0,1-4.02-.238l-.111-.119.4-.421a.194.194,0,0,0-.111-.326l-2.7-.254a.18.18,0,0,0-.191.207l.238,2.884a.177.177,0,0,0,.3.119l.4-.421.111.119a5.279,5.279,0,0,0,1.787,1.263,5.084,5.084,0,0,0,4.051,0,5.473,5.473,0,0,0,1.787-1.263,5.7,5.7,0,0,0,1.184-1.907,6.119,6.119,0,0,0,0-4.337,5.7,5.7,0,0,0-1.184-1.907,5.279,5.279,0,0,0-1.787-1.263,5.086,5.086,0,0,0-2.026-.421c-.167,0-.326.008-.493.024a5.158,5.158,0,0,0-1.144.246c-.135.048-.262.1-.4.151a5.473,5.473,0,0,0-1.787,1.263h0l-.628.675-.127.135-1.732,1.851-3.448,3.686h0c-.04.048-.087.087-.127.135h0c-.024.016-.04.04-.064.056h0a3.314,3.314,0,0,1-.373.286,2.879,2.879,0,0,1-3.043.064,3.282,3.282,0,0,1-1.5-2.272,2.923,2.923,0,0,1-.04-.461h0v-.079a3.325,3.325,0,0,1,.882-2.28,2.888,2.888,0,0,1,4.274,0l1.064,1.144a.313.313,0,0,0,.461,0l1.215-1.3a.366.366,0,0,0,0-.493L116.6,35.374a5.279,5.279,0,0,0-1.787-1.263,5.084,5.084,0,0,0-4.051,0,5.473,5.473,0,0,0-1.787,1.263,5.7,5.7,0,0,0-1.184,1.907,6.119,6.119,0,0,0,0,4.337Z" transform="translate(-22.079 -6.926)" fill="#fff"/>
  </g>
</svg>
